<svg width="226" height="254" viewBox="0 0 226 254" fill="none" xmlns="http://www.w3.org/2000/svg">
<path fill-rule="evenodd" clip-rule="evenodd" d="M122.583 2.67949C116.395 -0.893165 108.771 -0.893163 102.583 2.67949L10 56.1325C3.81198 59.7051 0 66.3077 0 73.453V180.359C0 187.504 3.81198 194.107 10 197.679L102.583 251.132C108.771 254.705 116.395 254.705 122.583 251.132L215.167 197.679C221.355 194.107 225.167 187.504 225.167 180.359V73.453C225.167 66.3077 221.355 59.7051 215.167 56.1325L122.583 2.67949ZM99.5833 81.906C92.9559 81.906 87.5833 76.5334 87.5833 69.906V43.906C87.5833 37.2786 92.9559 31.906 99.5833 31.906H125.583C132.211 31.906 137.583 37.2786 137.583 43.906V69.906C137.583 76.5334 132.211 81.906 125.583 81.906H99.5833ZM167.583 115.664C160.956 115.664 155.583 110.292 155.583 103.664V77.6642C155.583 71.0368 160.956 65.6642 167.583 65.6642H193.583C200.211 65.6642 205.583 71.0368 205.583 77.6642V103.664C205.583 110.292 200.211 115.664 193.583 115.664H167.583ZM167.583 183.906C160.956 183.906 155.583 178.533 155.583 171.906V145.906C155.583 139.279 160.956 133.906 167.583 133.906H193.583C200.211 133.906 205.583 139.279 205.583 145.906V171.906C205.583 178.533 200.211 183.906 193.583 183.906H167.583ZM87.5833 205.906C87.5833 212.533 92.9559 217.906 99.5833 217.906H125.583C132.211 217.906 137.583 212.533 137.583 205.906V179.906C137.583 173.279 132.211 167.906 125.583 167.906H99.5833C92.9559 167.906 87.5833 173.279 87.5833 179.906V205.906ZM87.5833 137.906C87.5833 144.533 92.9559 149.906 99.5833 149.906H125.583C132.211 149.906 137.583 144.533 137.583 137.906V111.906C137.583 105.279 132.211 99.906 125.583 99.906H99.5833C92.9559 99.906 87.5833 105.279 87.5833 111.906V137.906ZM31.5833 116.34C24.9559 116.34 19.5833 110.967 19.5833 104.34V78.3396C19.5833 71.7122 24.9559 66.3396 31.5833 66.3396H57.5833C64.2107 66.3396 69.5833 71.7122 69.5833 78.3396V104.34C69.5833 110.967 64.2107 116.34 57.5833 116.34H31.5833ZM19.5833 171.906C19.5833 178.533 24.9559 183.906 31.5833 183.906H57.5833C64.2107 183.906 69.5833 178.533 69.5833 171.906V145.906C69.5833 139.279 64.2107 133.906 57.5833 133.906H31.5833C24.9559 133.906 19.5833 139.279 19.5833 145.906V171.906Z" fill="url(#paint0_linear_2001_93)"/>
<defs>
<linearGradient id="paint0_linear_2001_93" x1="162.083" y1="25.406" x2="56.0832" y2="225.406" gradientUnits="userSpaceOnUse">
<stop stop-color="#F0F0F0"/>
<stop offset="1" stop-color="#D4D4D4"/>
</linearGradient>
</defs>
</svg>
